<svg width="1783" height="179" viewBox="0 0 1783 179" fill="none" xmlns="http://www.w3.org/2000/svg">
<path opacity="0.1" d="M150.026 55L0.525821 178.05L1.67582 124L151.176 0.949997L150.026 55ZM43.3058 8.99999V135.96L0.525821 178.05V8.99999H43.3058ZM151.176 0.949997V170H108.396V44.88L151.176 0.949997ZM231.406 95.94L222.436 170H175.056L202.886 0.949997L272.806 93.64L342.956 0.949997L370.786 170H323.406L314.436 95.94L272.806 155.05L231.406 95.94ZM425.075 170V133.89H506.265V170H425.075ZM425.075 45.11V8.99999H506.265V45.11H425.075ZM425.075 103.76V68.8H501.665V103.76H425.075ZM394.715 8.99999H437.495V170H394.715V8.99999ZM547.928 105.83V66.04H673.278V105.83H547.928ZM645.218 8.99999H689.838V170H645.218V8.99999ZM537.118 8.99999H581.738V170H537.118V8.99999ZM872.37 55L722.87 178.05L724.02 124L873.52 0.949997L872.37 55ZM765.65 8.99999V135.96L722.87 178.05V8.99999H765.65ZM873.52 0.949997V170H830.74V44.88L873.52 0.949997ZM917.41 105.83V66.04H1042.76V105.83H917.41ZM1014.7 8.99999H1059.32V170H1014.7V8.99999ZM906.6 8.99999H951.22V170H906.6V8.99999ZM1103.16 105.83V66.04H1228.51V105.83H1103.16ZM1200.45 8.99999H1245.07V170H1200.45V8.99999ZM1092.35 8.99999H1136.97V170H1092.35V8.99999ZM1427.6 55L1278.1 178.05L1279.25 124L1428.75 0.949997L1427.6 55ZM1320.88 8.99999V135.96L1278.1 178.05V8.99999H1320.88ZM1428.75 0.949997V170H1385.97V44.88L1428.75 0.949997ZM1461.83 8.99999H1508.29V170H1461.83V8.99999ZM1560.5 8.99999H1612.48L1548.54 84.44L1615.93 170H1561.88L1495.41 85.82L1560.5 8.99999ZM1781.36 55L1631.86 178.05L1633.01 124L1782.51 0.949997L1781.36 55ZM1674.64 8.99999V135.96L1631.86 178.05V8.99999H1674.64ZM1782.51 0.949997V170H1739.73V44.88L1782.51 0.949997Z" fill="white"/>
</svg>
