<svg width="27" height="30" viewBox="0 0 27 30" fill="none" xmlns="http://www.w3.org/2000/svg">
<path d="M12.1111 12.1111C15.1793 12.1111 17.6667 9.62381 17.6667 6.55556C17.6667 3.48731 15.1793 1 12.1111 1C9.04285 1 6.55554 3.48731 6.55554 6.55556C6.55554 9.62381 9.04285 12.1111 12.1111 12.1111Z" stroke="white" stroke-width="2"/>
<path opacity="0.5" d="M16.2778 16.7458C14.9911 16.4529 13.5846 16.2915 12.1111 16.2915C5.97461 16.2915 1 19.0897 1 22.5415C1 25.9933 1 28.7915 12.1111 28.7915C20.0103 28.7915 22.2938 27.3772 22.9539 25.3193" stroke="white" stroke-width="2"/>
<path d="M20.4445 25.9998C23.5127 25.9998 26 23.5125 26 20.4442C26 17.376 23.5127 14.8887 20.4445 14.8887C17.3762 14.8887 14.8889 17.376 14.8889 20.4442C14.8889 23.5125 17.3762 25.9998 20.4445 25.9998Z" stroke="white" stroke-width="2"/>
<path d="M18.5924 18.5928L22.2962 22.2964M22.2966 18.5928L18.5928 22.2964" stroke="white" stroke-width="2" stroke-linecap="round" stroke-linejoin="round"/>
</svg>
