<svg width="27" height="29" viewBox="0 0 27 29" fill="none" xmlns="http://www.w3.org/2000/svg">
<path d="M20.9739 8.94639L21.5837 8.3366C22.594 7.32628 24.2322 7.32628 25.2424 8.3366C26.2528 9.34693 26.2528 10.985 25.2424 11.9953L24.6327 12.6052M20.9739 8.94639C20.9739 8.94639 21.0502 10.2422 22.1935 11.3855C23.3369 12.5288 24.6327 12.6052 24.6327 12.6052M20.9739 8.94639L15.3678 14.5524C14.9881 14.9321 14.7982 15.122 14.6349 15.3313C14.4424 15.5783 14.2773 15.8456 14.1426 16.1282C14.0284 16.3679 13.9434 16.6225 13.7736 17.132L13.2299 18.763L13.054 19.2907M24.6327 12.6052L19.0266 18.2112C18.6469 18.5909 18.457 18.7808 18.2477 18.9441C18.0007 19.1366 17.7335 19.3017 17.4509 19.4365C17.2111 19.5507 16.9565 19.6357 16.447 19.8054L14.816 20.3491L14.2884 20.525M13.054 19.2907L12.8781 19.8184C12.7945 20.0691 12.8598 20.3455 13.0466 20.5324C13.2335 20.7192 13.5099 20.7845 13.7606 20.7009L14.2884 20.525M13.054 19.2907L14.2884 20.525" stroke="white" stroke-width="2"/>
<path d="M7.5791 15.4736H10.8686" stroke="white" stroke-width="2" stroke-linecap="round"/>
<path d="M7.5791 10.2104H16.1317" stroke="white" stroke-width="2" stroke-linecap="round"/>
<path d="M7.5791 20.7368H9.55278" stroke="white" stroke-width="2" stroke-linecap="round"/>
<path opacity="0.5" d="M1 11.5263C1 6.56415 1 4.08309 2.54154 2.54154C4.08309 1 6.56415 1 11.5263 1H14.1579C19.12 1 21.6012 1 23.1426 2.54154C24.6842 4.08309 24.6842 6.56415 24.6842 11.5263V16.7895C24.6842 21.7515 24.6842 24.2327 23.1426 25.7742C21.6012 27.3158 19.12 27.3158 14.1579 27.3158H11.5263C6.56415 27.3158 4.08309 27.3158 2.54154 25.7742C1 24.2327 1 21.7515 1 16.7895V11.5263Z" stroke="white" stroke-width="2"/>
</svg>
