<svg width="27" height="30" viewBox="0 0 27 30" fill="none" xmlns="http://www.w3.org/2000/svg">
<path opacity="0.5" d="M9.33333 4.47217H7.94444C4.67081 4.47217 3.03399 4.47217 2.01699 5.48915C1 6.50615 1 8.14297 1 11.4166V18.3611C1 21.6347 1 23.2715 2.01699 24.2886C3.03399 25.3055 4.67081 25.3055 7.94444 25.3055H9.33333" stroke="white" stroke-width="2"/>
<path d="M9.33337 7.21722C9.33337 4.03137 9.33337 2.43845 10.3157 1.56763C11.298 0.696813 12.7993 0.958688 15.8023 1.48244L19.0367 2.04658C22.3624 2.62663 24.0252 2.91665 25.0127 4.13647C26 5.35627 26 7.12044 26 10.6488V19.129C26 22.6574 26 24.4215 25.0127 25.6412C24.0252 26.8611 22.3624 27.1511 19.0367 27.7312L15.8023 28.2953C12.7993 28.819 11.298 29.081 10.3157 28.2101C9.33337 27.3393 9.33337 25.7464 9.33337 22.5605V7.21722Z" stroke="white" stroke-width="2"/>
<path opacity="0.5" d="M13.5 13.5V16.2778" stroke="white" stroke-width="2" stroke-linecap="round"/>
</svg>
