<svg width="30" height="30" viewBox="0 0 30 30" fill="none" xmlns="http://www.w3.org/2000/svg">
<path d="M26.0235 1.47515C25.7989 0.903629 24.993 0.903629 24.7685 1.47515L24.1679 3.00345C24.0994 3.17794 23.9618 3.31606 23.788 3.38488L22.2652 3.98763C21.6958 4.21303 21.6958 5.02186 22.2652 5.24727L23.788 5.85003C23.9618 5.91885 24.0994 6.05696 24.1679 6.23145L24.7685 7.75974C24.993 8.33127 25.7989 8.33127 26.0235 7.75976L26.624 6.23145C26.6925 6.05696 26.8301 5.91885 27.004 5.85003L28.5267 5.24727C29.0961 5.02186 29.0961 4.21303 28.5267 3.98763L27.004 3.38488C26.8301 3.31606 26.6925 3.17794 26.624 3.00345L26.0235 1.47515Z" fill="#B5B5B5" stroke="#8E8E8E"/>
<path d="M20.6271 9.59953C20.4024 9.02802 19.5966 9.02802 19.3719 9.59953L19.153 10.1568C19.0845 10.3312 18.9469 10.4694 18.7731 10.5382L18.2179 10.7579C17.6484 10.9834 17.6484 11.7922 18.2179 12.0176L18.7731 12.2373C18.9469 12.3061 19.0845 12.4443 19.153 12.6188L19.3719 13.176C19.5966 13.7475 20.4024 13.7475 20.6271 13.176L20.846 12.6188C20.9145 12.4443 21.0521 12.3061 21.2259 12.2373L21.7812 12.0176C22.3506 11.7922 22.3506 10.9834 21.7812 10.7579L21.2259 10.5382C21.0521 10.4694 20.9145 10.3312 20.846 10.1568L20.6271 9.59953Z" fill="#B5B5B5" stroke="#8E8E8E"/>
<path opacity="0.5" d="M27.907 15C27.907 22.1283 22.1283 27.907 15 27.907V30C23.2843 30 30 23.2843 30 15H27.907ZM15 27.907C7.87168 27.907 2.09302 22.1283 2.09302 15H0C0 23.2843 6.71573 30 15 30V27.907ZM2.09302 15C2.09302 7.87168 7.87168 2.09302 15 2.09302V0C6.71573 0 0 6.71573 0 15H2.09302ZM19.8837 18.1395C15.4527 18.1395 11.8605 14.5473 11.8605 10.1163H9.76744C9.76744 15.7034 14.2966 20.2326 19.8837 20.2326V18.1395ZM26.7562 14.2591C25.3496 16.5869 22.7975 18.1395 19.8837 18.1395V20.2326C23.5603 20.2326 26.7777 18.2706 28.5477 15.3414L26.7562 14.2591ZM11.8605 10.1163C11.8605 7.20254 13.4131 4.65042 15.7409 3.24373L14.6586 1.45235C11.7294 3.22228 9.76744 6.43966 9.76744 10.1163H11.8605ZM15 2.09302C14.8765 2.09302 14.7317 2.03732 14.6266 1.92793C14.5376 1.83526 14.5169 1.74759 14.512 1.71213C14.5062 1.66866 14.5091 1.54266 14.6586 1.45235L15.7409 3.24373C16.4431 2.81951 16.6688 2.04276 16.5862 1.432C16.5006 0.797107 15.9999 0 15 0V2.09302ZM28.5477 15.3414C28.4573 15.4909 28.3313 15.4938 28.2879 15.488C28.2525 15.4831 28.1647 15.4624 28.072 15.3734C27.9627 15.2683 27.907 15.1235 27.907 15H30C30 14.0001 29.2028 13.4994 28.568 13.4138C27.9572 13.3312 27.1804 13.5569 26.7562 14.2591L28.5477 15.3414Z" fill="#B5B5B5"/>
</svg>
