<svg width="27" height="29" viewBox="0 0 27 29" fill="none" xmlns="http://www.w3.org/2000/svg">
<path opacity="0.5" d="M26 12.1892V14.1637C26 20.3691 26 23.4719 24.1694 25.3996C22.3389 27.3274 19.3925 27.3274 13.5 27.3274C7.60744 27.3274 4.66116 27.3274 2.83059 25.3996C1 23.4719 1 20.3691 1 14.1637C1 7.95828 1 4.85556 2.83059 2.92779C4.66116 1 7.60744 1 13.5 1H15.375" stroke="white" stroke-width="2" stroke-linecap="round"/>
<path d="M20.1261 2.06131L19.315 2.9154L11.859 10.7674C11.354 11.2992 11.1015 11.5651 10.8843 11.8584C10.6281 12.2042 10.4085 12.5784 10.2293 12.9744C10.0774 13.3101 9.96446 13.6668 9.73861 14.3804L9.01553 16.6648L8.54764 18.143C8.4365 18.4942 8.52328 18.8812 8.7718 19.143C9.02033 19.4047 9.38794 19.4961 9.72137 19.3791L11.125 18.8863L13.2943 18.1248C13.9719 17.8869 14.3106 17.7681 14.6294 17.6081C15.0054 17.4194 15.3608 17.1881 15.6891 16.9184C15.9676 16.6896 16.2201 16.4237 16.7251 15.8919L24.1811 8.03989L24.9923 7.18582C26.3359 5.77073 26.3359 3.47641 24.9923 2.06131C23.6485 0.646228 21.4699 0.646228 20.1261 2.06131Z" stroke="white" stroke-width="2"/>
<path opacity="0.5" d="M19.3152 2.91602C19.3152 2.91602 19.4166 4.73094 20.9374 6.33234C22.458 7.93375 24.1814 8.04051 24.1814 8.04051M11.1252 18.8869L9.01575 16.6654" stroke="white" stroke-width="2"/>
</svg>
