<svg width="1772" height="94" viewBox="0 0 1772 94" fill="none" xmlns="http://www.w3.org/2000/svg">
<path opacity="0.1" d="M23.8895 42.5C23.8895 46.8267 24.8428 50.53 26.7495 53.61C28.7295 56.6167 31.3328 58.9267 34.5595 60.54C37.7861 62.08 41.3428 62.85 45.2295 62.85C48.8961 62.85 52.0861 62.3733 54.7995 61.42C57.5128 60.4667 59.9328 59.2567 62.0595 57.79C64.1861 56.25 66.0561 54.6367 67.6695 52.95V75.39C64.6628 77.59 61.3261 79.4233 57.6595 80.89C54.0661 82.2833 49.4461 82.98 43.7995 82.98C37.4195 82.98 31.5528 82.0267 26.1995 80.12C20.8461 78.2133 16.2628 75.4633 12.4495 71.87C8.63612 68.2767 5.66612 64.0233 3.53945 59.11C1.48612 54.1233 0.459453 48.5867 0.459453 42.5C0.459453 36.4133 1.48612 30.9133 3.53945 26C5.66612 21.0133 8.63612 16.7233 12.4495 13.13C16.2628 9.53666 20.8461 6.78666 26.1995 4.88C31.5528 2.97333 37.4195 2.01999 43.7995 2.01999C49.4461 2.01999 54.0661 2.71666 57.6595 4.10999C61.3261 5.50333 64.6628 7.33666 67.6695 9.60999V32.05C66.0561 30.3633 64.1861 28.7867 62.0595 27.32C59.9328 25.78 57.5128 24.5333 54.7995 23.58C52.0861 22.6267 48.8961 22.15 45.2295 22.15C41.3428 22.15 37.7861 22.9567 34.5595 24.57C31.3328 26.11 28.7295 28.42 26.7495 31.5C24.8428 34.5067 23.8895 38.1733 23.8895 42.5ZM96.938 81V63.73H135.768V81H96.938ZM96.938 21.27V3.99999H135.768V21.27H96.938ZM96.938 49.32V32.6H133.568V49.32H96.938ZM82.418 3.99999H102.878V81H82.418V3.99999ZM151.404 3.99999H199.584V23.03H172.744V81H151.404V3.99999ZM221.31 42.5C221.31 46.6067 222.117 50.2733 223.73 53.5C225.344 56.6533 227.617 59.1467 230.55 60.98C233.484 62.74 236.93 63.62 240.89 63.62C244.924 63.62 248.37 62.74 251.23 60.98C254.164 59.1467 256.437 56.6533 258.05 53.5C259.664 50.2733 260.47 46.6067 260.47 42.5C260.47 38.32 259.7 34.6533 258.16 31.5C256.62 28.3467 254.384 25.89 251.45 24.13C248.59 22.2967 245.07 21.38 240.89 21.38C236.93 21.38 233.484 22.2967 230.55 24.13C227.617 25.89 225.344 28.3467 223.73 31.5C222.117 34.6533 221.31 38.32 221.31 42.5ZM198.76 42.5C198.76 36.4133 199.824 30.9133 201.95 26C204.15 21.0133 207.157 16.76 210.97 13.24C214.784 9.64666 219.22 6.89666 224.28 4.99C229.414 3.00999 234.95 2.01999 240.89 2.01999C246.977 2.01999 252.55 3.00999 257.61 4.99C262.744 6.89666 267.217 9.64666 271.03 13.24C274.844 16.76 277.777 21.0133 279.83 26C281.957 30.9133 283.02 36.4133 283.02 42.5C283.02 48.5133 281.994 54.05 279.94 59.11C277.887 64.17 274.99 68.57 271.25 72.31C267.51 75.9767 263.037 78.8367 257.83 80.89C252.697 82.87 247.05 83.86 240.89 83.86C234.73 83.86 229.084 82.87 223.95 80.89C218.817 78.8367 214.344 75.9767 210.53 72.31C206.79 68.57 203.894 64.17 201.84 59.11C199.787 54.05 198.76 48.5133 198.76 42.5ZM332.939 37.33L318.529 77.7H293.559L332.829 0.149998L372.209 77.7H347.239L332.939 37.33ZM356.589 81H309.179V93.1H287.619V62.85H378.149V93.1H356.589V81ZM396.211 50.31V31.28H456.161V50.31H396.211ZM442.741 3.99999H464.081V81H442.741V3.99999ZM391.041 3.99999H412.381V81H391.041V3.99999ZM517.279 47.01L497.039 81H472.179L495.279 47.01H517.279ZM538.069 3.99999V81H516.729V3.99999H538.069ZM524.429 22.04H509.579C507.379 22.04 505.472 22.37 503.859 23.03C502.319 23.69 501.109 24.68 500.229 26C499.422 27.2467 499.019 28.7867 499.019 30.62C499.019 32.4533 499.422 34.03 500.229 35.35C501.109 36.67 502.319 37.66 503.859 38.32C505.472 38.98 507.379 39.31 509.579 39.31H524.429V55.48H507.819C500.852 55.48 495.059 54.4167 490.439 52.29C485.819 50.09 482.372 47.0467 480.099 43.16C477.899 39.2 476.799 34.7267 476.799 29.74C476.799 24.68 477.899 20.2433 480.099 16.43C482.372 12.5433 485.819 9.5 490.439 7.3C495.059 5.1 500.852 3.99999 507.819 3.99999H524.429V22.04ZM592.921 49.32V32.6H626.361C631.348 32.6 635.785 33.6267 639.671 35.68C643.631 37.66 646.748 40.4467 649.021 44.04C651.368 47.6333 652.541 51.8133 652.541 56.58C652.541 61.2733 651.368 65.49 649.021 69.23C646.748 72.8967 643.631 75.7933 639.671 77.92C635.785 79.9733 631.348 81 626.361 81H592.921V63.73H621.081C623.208 63.73 624.968 63.51 626.361 63.07C627.828 62.5567 628.928 61.7867 629.661 60.76C630.395 59.66 630.761 58.2667 630.761 56.58C630.761 54.8933 630.395 53.5367 629.661 52.51C628.928 51.41 627.828 50.6033 626.361 50.09C624.968 49.5767 623.208 49.32 621.081 49.32H592.921ZM587.751 3.99999H646.711V21.27H609.531V81H587.751V3.99999ZM679.379 81V63.73H718.209V81H679.379ZM679.379 21.27V3.99999H718.209V21.27H679.379ZM679.379 49.32V32.6H716.009V49.32H679.379ZM664.859 3.99999H685.319V81H664.859V3.99999ZM759.255 43.93V34.91C762.702 34.91 765.562 34.5433 767.835 33.81C770.108 33.0767 771.795 32.0867 772.895 30.84C774.068 29.52 774.655 28.0167 774.655 26.33C774.655 24.9367 774.252 23.7267 773.445 22.7C772.712 21.6 771.575 20.7567 770.035 20.17C768.495 19.51 766.625 19.18 764.425 19.18C761.932 19.18 759.805 19.5467 758.045 20.28C756.285 20.94 754.965 21.8933 754.085 23.14C753.205 24.3867 752.765 25.8533 752.765 27.54H733.185C733.185 22.8467 734.358 18.63 736.705 14.89C739.052 11.0767 742.535 8.06999 747.155 5.87C751.848 3.59666 757.605 2.45999 764.425 2.45999C771.318 2.45999 777.075 3.41333 781.695 5.32C786.315 7.22666 789.798 9.82999 792.145 13.13C794.492 16.3567 795.665 19.9867 795.665 24.02C795.665 27.54 794.712 30.5833 792.805 33.15C790.898 35.6433 788.258 37.6967 784.885 39.31C781.512 40.85 777.625 42.0233 773.225 42.83C768.825 43.5633 764.168 43.93 759.255 43.93ZM765.195 82.98C759.035 82.98 753.718 82.2467 749.245 80.78C744.772 79.24 741.105 77.15 738.245 74.51C735.385 71.87 733.258 68.9 731.865 65.6C730.545 62.3 729.885 58.89 729.885 55.37H750.895C750.968 57.8633 751.592 59.9167 752.765 61.53C754.012 63.1433 755.662 64.3167 757.715 65.05C759.768 65.7833 761.968 66.15 764.315 66.15C767.908 66.15 770.878 65.5267 773.225 64.28C775.645 63.0333 776.855 60.87 776.855 57.79C776.855 55.9567 776.268 54.3067 775.095 52.84C773.995 51.3 772.162 50.09 769.595 49.21C767.028 48.33 763.582 47.89 759.255 47.89V37.55C766.735 37.55 773.372 38.32 779.165 39.86C785.032 41.3267 789.615 43.71 792.915 47.01C796.215 50.2367 797.865 54.49 797.865 59.77C797.865 64.2433 796.655 68.24 794.235 71.76C791.888 75.28 788.295 78.03 783.455 80.01C778.615 81.99 772.528 82.98 765.195 82.98ZM912.961 26L841.461 84.85L842.011 59L913.511 0.149998L912.961 26ZM861.921 3.99999V64.72L841.461 84.85V3.99999H861.921ZM913.511 0.149998V81H893.051V21.16L913.511 0.149998ZM951.882 45.58L947.592 81H924.932L938.242 0.149998L971.682 44.48L1005.23 0.149998L1018.54 81H995.882L991.592 45.58L971.682 73.85L951.882 45.58ZM1044.51 81V63.73H1083.34V81H1044.51ZM1044.51 21.27V3.99999H1083.34V21.27H1044.51ZM1044.51 49.32V32.6H1081.14V49.32H1044.51ZM1029.99 3.99999H1050.45V81H1029.99V3.99999ZM1103.26 50.31V31.28H1163.21V50.31H1103.26ZM1149.79 3.99999H1171.13V81H1149.79V3.99999ZM1098.09 3.99999H1119.43V81H1098.09V3.99999ZM1258.43 26L1186.93 84.85L1187.48 59L1258.98 0.149998L1258.43 26ZM1207.39 3.99999V64.72L1186.93 84.85V3.99999H1207.39ZM1258.98 0.149998V81H1238.52V21.16L1258.98 0.149998ZM1279.97 50.31V31.28H1339.92V50.31H1279.97ZM1326.5 3.99999H1347.84V81H1326.5V3.99999ZM1274.8 3.99999H1296.14V81H1274.8V3.99999ZM1368.81 50.31V31.28H1428.76V50.31H1368.81ZM1415.34 3.99999H1436.68V81H1415.34V3.99999ZM1363.64 3.99999H1384.98V81H1363.64V3.99999ZM1523.98 26L1452.48 84.85L1453.03 59L1524.53 0.149998L1523.98 26ZM1472.94 3.99999V64.72L1452.48 84.85V3.99999H1472.94ZM1524.53 0.149998V81H1504.07V21.16L1524.53 0.149998ZM1540.35 3.99999H1562.57V81H1540.35V3.99999ZM1587.54 3.99999H1612.4L1581.82 40.08L1614.05 81H1588.2L1556.41 40.74L1587.54 3.99999ZM1634.34 42.5C1634.34 46.6067 1635.14 50.2733 1636.76 53.5C1638.37 56.6533 1640.64 59.1467 1643.58 60.98C1646.51 62.74 1649.96 63.62 1653.92 63.62C1657.95 63.62 1661.4 62.74 1664.26 60.98C1667.19 59.1467 1669.46 56.6533 1671.08 53.5C1672.69 50.2733 1673.5 46.6067 1673.5 42.5C1673.5 38.32 1672.73 34.6533 1671.19 31.5C1669.65 28.3467 1667.41 25.89 1664.48 24.13C1661.62 22.2967 1658.1 21.38 1653.92 21.38C1649.96 21.38 1646.51 22.2967 1643.58 24.13C1640.64 25.89 1638.37 28.3467 1636.76 31.5C1635.14 34.6533 1634.34 38.32 1634.34 42.5ZM1611.79 42.5C1611.79 36.4133 1612.85 30.9133 1614.98 26C1617.18 21.0133 1620.18 16.76 1624 13.24C1627.81 9.64666 1632.25 6.89666 1637.31 4.99C1642.44 3.00999 1647.98 2.01999 1653.92 2.01999C1660 2.01999 1665.58 3.00999 1670.64 4.99C1675.77 6.89666 1680.24 9.64666 1684.06 13.24C1687.87 16.76 1690.8 21.0133 1692.86 26C1694.98 30.9133 1696.05 36.4133 1696.05 42.5C1696.05 48.5133 1695.02 54.05 1692.97 59.11C1690.91 64.17 1688.02 68.57 1684.28 72.31C1680.54 75.9767 1676.06 78.8367 1670.86 80.89C1665.72 82.87 1660.08 83.86 1653.92 83.86C1647.76 83.86 1642.11 82.87 1636.98 80.89C1631.84 78.8367 1627.37 75.9767 1623.56 72.31C1619.82 68.57 1616.92 64.17 1614.87 59.11C1612.81 54.05 1611.79 48.5133 1611.79 42.5ZM1723.34 43.38V34.47H1735.77C1737.75 34.47 1739.4 34.1767 1740.72 33.59C1742.04 33.0033 1743.03 32.16 1743.69 31.06C1744.42 29.96 1744.79 28.64 1744.79 27.1C1744.79 24.7533 1744.02 23.03 1742.48 21.93C1741.01 20.83 1738.77 20.28 1735.77 20.28H1728.84V64.72H1737.75C1739.87 64.72 1741.78 64.5 1743.47 64.06C1745.23 63.62 1746.62 62.8133 1747.65 61.64C1748.67 60.3933 1749.19 58.6333 1749.19 56.36C1749.19 54.8933 1748.89 53.6833 1748.31 52.73C1747.72 51.7767 1746.88 51.0067 1745.78 50.42C1744.75 49.8333 1743.54 49.43 1742.15 49.21C1740.83 48.99 1739.36 48.88 1737.75 48.88H1723.34V37.22H1740.39C1744.13 37.22 1747.83 37.66 1751.5 38.54C1755.16 39.3467 1758.5 40.6667 1761.51 42.5C1764.51 44.26 1766.9 46.57 1768.66 49.43C1770.49 52.2167 1771.41 55.59 1771.41 59.55C1771.41 64.6833 1770.16 68.8267 1767.67 71.98C1765.17 75.1333 1761.62 77.4433 1757 78.91C1752.38 80.3033 1746.84 81 1740.39 81H1707.5V3.99999H1738.41C1743.91 3.99999 1748.78 4.73333 1753.04 6.2C1757.36 7.66666 1760.77 9.86666 1763.27 12.8C1765.76 15.66 1767.01 19.29 1767.01 23.69C1767.01 27.87 1765.76 31.4633 1763.27 34.47C1760.77 37.4033 1757.36 39.64 1753.04 41.18C1748.78 42.6467 1743.91 43.38 1738.41 43.38H1723.34Z" fill="white"/>
</svg>
