<svg width="347" height="83" viewBox="0 0 347 83" fill="none" xmlns="http://www.w3.org/2000/svg">
<path d="M14.4653 56.6886C18.2959 59.5546 22.8599 61.2912 27.7982 61.3326C41.6049 61.4476 53.1105 48.2659 52.9992 34.0143C52.8875 19.7625 41.6049 8.11586 27.7982 8.00086C13.9916 7.88586 2.8894 19.346 3.00083 33.5978C3.0308 37.4316 3.84 41.2016 5.27579 44.6666" stroke="#3EB489" stroke-width="5" stroke-linecap="round"/>
<path d="M39.4649 31.3332C39.4206 25.8546 34.9436 21.3775 29.4649 21.3333" stroke="#3EB489" stroke-width="5" stroke-linecap="round"/>
<path d="M27.7982 69.1673C28.8689 69.1673 29.4042 69.1673 29.7759 69.0943C31.9536 68.6663 33.2786 66.519 32.6352 64.4613C32.5252 64.11 32.2716 63.654 31.7636 62.7423M27.7982 69.1673C26.7276 69.1673 26.1922 69.1673 25.8206 69.0943C23.6429 68.6663 22.3179 66.519 22.9612 64.4613C23.0712 64.11 23.3249 63.654 23.8329 62.7423M27.7982 69.1673V76.3333" stroke="#3EB489" stroke-width="5" stroke-linecap="round"/>
<path d="M80.303 37C79.7963 37 79.3696 36.8667 79.023 36.6C78.703 36.3067 78.543 35.92 78.543 35.44V7.32C78.543 6.86666 78.6896 6.49333 78.983 6.2C79.2763 5.90667 79.6496 5.76 80.103 5.76H89.823C91.423 5.76 92.863 6.10667 94.143 6.8C95.4496 7.46667 96.4763 8.38667 97.223 9.56C97.9963 10.7333 98.383 12.0933 98.383 13.64C98.383 15.08 97.9963 16.36 97.223 17.48C96.4496 18.6 95.4363 19.4533 94.183 20.04C95.9696 20.52 97.4096 21.4267 98.503 22.76C99.5963 24.0667 100.143 25.7333 100.143 27.76C100.143 29.5733 99.7296 31.1733 98.903 32.56C98.0763 33.9467 96.9296 35.04 95.463 35.84C94.023 36.6133 92.3696 37 90.503 37H80.303ZM81.663 34H90.503C91.783 34 92.9163 33.7467 93.903 33.24C94.8896 32.7333 95.663 32.0133 96.223 31.08C96.783 30.1467 97.063 29.04 97.063 27.76C97.063 26.56 96.783 25.52 96.223 24.64C95.663 23.7333 94.8896 23.04 93.903 22.56C92.9163 22.0533 91.783 21.8 90.503 21.8H81.663V34ZM81.663 18.8H89.823C91.423 18.8 92.743 18.3467 93.783 17.44C94.823 16.5333 95.343 15.2667 95.343 13.64C95.343 12.04 94.823 10.8267 93.783 10C92.743 9.17333 91.423 8.76 89.823 8.76H81.663V18.8ZM108.155 37C107.675 37 107.289 36.8667 106.995 36.6C106.729 36.3067 106.595 35.92 106.595 35.44V16.68C106.595 16.2 106.729 15.8267 106.995 15.56C107.289 15.2667 107.675 15.12 108.155 15.12C108.609 15.12 108.969 15.2667 109.235 15.56C109.529 15.8267 109.675 16.2 109.675 16.68V35.44C109.675 35.92 109.529 36.3067 109.235 36.6C108.969 36.8667 108.609 37 108.155 37ZM108.115 10.96C107.529 10.96 107.022 10.7467 106.595 10.32C106.169 9.89333 105.955 9.37333 105.955 8.76C105.955 8.09333 106.169 7.57333 106.595 7.2C107.049 6.8 107.569 6.6 108.155 6.6C108.715 6.6 109.209 6.8 109.635 7.2C110.089 7.57333 110.315 8.09333 110.315 8.76C110.315 9.37333 110.102 9.89333 109.675 10.32C109.249 10.7467 108.729 10.96 108.115 10.96ZM118.798 23.52C118.878 21.8667 119.305 20.3867 120.078 19.08C120.878 17.7733 121.905 16.7467 123.158 16C124.438 15.2533 125.851 14.88 127.398 14.88C128.625 14.88 129.571 15.0533 130.238 15.4C130.905 15.7467 131.158 16.2533 130.998 16.92C130.891 17.32 130.705 17.5867 130.438 17.72C130.198 17.8533 129.891 17.9067 129.518 17.88C129.171 17.8533 128.771 17.8267 128.318 17.8C126.825 17.6667 125.491 17.8267 124.318 18.28C123.171 18.7067 122.251 19.3733 121.558 20.28C120.891 21.1867 120.558 22.2667 120.558 23.52H118.798ZM119.038 37C118.558 37 118.185 36.8667 117.918 36.6C117.651 36.3333 117.518 35.96 117.518 35.48V16.64C117.518 16.16 117.651 15.7867 117.918 15.52C118.185 15.2533 118.558 15.12 119.038 15.12C119.518 15.12 119.891 15.2533 120.158 15.52C120.425 15.7867 120.558 16.16 120.558 16.64V35.48C120.558 35.96 120.425 36.3333 120.158 36.6C119.891 36.8667 119.518 37 119.038 37ZM144.398 37C142.985 37 141.718 36.6667 140.598 36C139.505 35.3333 138.638 34.4267 137.998 33.28C137.358 32.1067 137.038 30.7733 137.038 29.28V9.72C137.038 9.26666 137.172 8.89333 137.438 8.6C137.732 8.30667 138.105 8.16 138.558 8.16C139.012 8.16 139.385 8.30667 139.678 8.6C139.972 8.89333 140.118 9.26666 140.118 9.72V29.28C140.118 30.64 140.518 31.76 141.318 32.64C142.118 33.4933 143.145 33.92 144.398 33.92H145.478C145.905 33.92 146.252 34.0667 146.518 34.36C146.785 34.6533 146.918 35.0267 146.918 35.48C146.918 35.9333 146.758 36.3067 146.438 36.6C146.118 36.8667 145.718 37 145.238 37H144.398ZM134.438 18.6C134.038 18.6 133.705 18.48 133.438 18.24C133.172 17.9733 133.038 17.6533 133.038 17.28C133.038 16.88 133.172 16.56 133.438 16.32C133.705 16.0533 134.038 15.92 134.438 15.92H144.638C145.038 15.92 145.372 16.0533 145.638 16.32C145.905 16.56 146.038 16.88 146.038 17.28C146.038 17.6533 145.905 17.9733 145.638 18.24C145.372 18.48 145.038 18.6 144.638 18.6H134.438ZM153.492 28.08C153.012 28.08 152.625 27.9333 152.332 27.64C152.065 27.3467 151.932 26.9733 151.932 26.52V7.32C151.932 6.84 152.065 6.46666 152.332 6.2C152.625 5.90667 153.012 5.76 153.492 5.76C153.945 5.76 154.305 5.90667 154.572 6.2C154.865 6.46666 155.012 6.84 155.012 7.32V26.52C155.012 26.9733 154.865 27.3467 154.572 27.64C154.305 27.9333 153.945 28.08 153.492 28.08ZM170.692 37C170.239 37 169.865 36.8533 169.572 36.56C169.279 36.2667 169.132 35.9067 169.132 35.48V25.08C169.132 23.4267 168.812 22.0667 168.172 21C167.559 19.9333 166.705 19.1333 165.612 18.6C164.545 18.0667 163.332 17.8 161.972 17.8C160.665 17.8 159.479 18.0533 158.412 18.56C157.372 19.0667 156.545 19.76 155.932 20.64C155.319 21.52 155.012 22.52 155.012 23.64H152.812C152.865 21.96 153.319 20.4667 154.172 19.16C155.025 17.8267 156.159 16.7867 157.572 16.04C158.985 15.2667 160.559 14.88 162.292 14.88C164.185 14.88 165.879 15.28 167.372 16.08C168.865 16.8533 170.039 18 170.892 19.52C171.772 21.04 172.212 22.8933 172.212 25.08V35.48C172.212 35.9067 172.065 36.2667 171.772 36.56C171.479 36.8533 171.119 37 170.692 37ZM153.492 37C153.012 37 152.625 36.8667 152.332 36.6C152.065 36.3067 151.932 35.9333 151.932 35.48V16.68C151.932 16.2 152.065 15.8267 152.332 15.56C152.625 15.2667 153.012 15.12 153.492 15.12C153.945 15.12 154.305 15.2667 154.572 15.56C154.865 15.8267 155.012 16.2 155.012 16.68V35.48C155.012 35.9333 154.865 36.3067 154.572 36.6C154.305 36.8667 153.945 37 153.492 37ZM188.962 37.2C186.856 37.2 184.962 36.72 183.282 35.76C181.602 34.7733 180.269 33.44 179.282 31.76C178.322 30.08 177.842 28.1733 177.842 26.04C177.842 23.9333 178.309 22.04 179.242 20.36C180.202 18.68 181.496 17.36 183.122 16.4C184.749 15.4133 186.589 14.92 188.642 14.92C190.429 14.92 192.042 15.3067 193.482 16.08C194.922 16.8267 196.082 17.8267 196.962 19.08V7.32C196.962 6.84 197.109 6.46666 197.402 6.2C197.696 5.90667 198.069 5.76 198.522 5.76C198.976 5.76 199.349 5.90667 199.642 6.2C199.936 6.46666 200.082 6.84 200.082 7.32V26.2C200.029 28.28 199.509 30.16 198.522 31.84C197.562 33.4933 196.242 34.8 194.562 35.76C192.909 36.72 191.042 37.2 188.962 37.2ZM188.962 34.4C190.509 34.4 191.882 34.04 193.082 33.32C194.309 32.5733 195.269 31.5733 195.962 30.32C196.682 29.0667 197.042 27.64 197.042 26.04C197.042 24.4667 196.682 23.0533 195.962 21.8C195.269 20.52 194.309 19.52 193.082 18.8C191.882 18.08 190.509 17.72 188.962 17.72C187.442 17.72 186.069 18.08 184.842 18.8C183.616 19.52 182.642 20.52 181.922 21.8C181.202 23.0533 180.842 24.4667 180.842 26.04C180.842 27.64 181.202 29.0667 181.922 30.32C182.642 31.5733 183.616 32.5733 184.842 33.32C186.069 34.04 187.442 34.4 188.962 34.4ZM216.924 37.2C214.87 37.2 213.03 36.72 211.404 35.76C209.777 34.7733 208.484 33.44 207.524 31.76C206.59 30.08 206.124 28.1867 206.124 26.08C206.124 23.9467 206.604 22.04 207.564 20.36C208.55 18.68 209.884 17.36 211.564 16.4C213.244 15.4133 215.137 14.92 217.244 14.92C219.35 14.92 221.23 15.4133 222.884 16.4C224.564 17.36 225.884 18.68 226.844 20.36C227.83 22.04 228.337 23.9467 228.364 26.08L227.124 27.04C227.124 28.96 226.67 30.6933 225.764 32.24C224.884 33.76 223.67 34.9733 222.124 35.88C220.604 36.76 218.87 37.2 216.924 37.2ZM217.244 34.4C218.79 34.4 220.164 34.04 221.364 33.32C222.59 32.6 223.55 31.6133 224.244 30.36C224.964 29.08 225.324 27.6533 225.324 26.08C225.324 24.48 224.964 23.0533 224.244 21.8C223.55 20.5467 222.59 19.56 221.364 18.84C220.164 18.0933 218.79 17.72 217.244 17.72C215.724 17.72 214.35 18.0933 213.124 18.84C211.897 19.56 210.924 20.5467 210.204 21.8C209.484 23.0533 209.124 24.48 209.124 26.08C209.124 27.6533 209.484 29.08 210.204 30.36C210.924 31.6133 211.897 32.6 213.124 33.32C214.35 34.04 215.724 34.4 217.244 34.4ZM226.804 37C226.35 37 225.977 36.8667 225.684 36.6C225.39 36.3067 225.244 35.9333 225.244 35.48V28.64L226.004 25.48L228.364 26.08V35.48C228.364 35.9333 228.217 36.3067 227.924 36.6C227.63 36.8667 227.257 37 226.804 37ZM238.114 46.52C237.901 46.52 237.661 46.4667 237.394 46.36C236.487 45.96 236.234 45.32 236.634 44.44L249.554 15.96C249.954 15.1067 250.594 14.8667 251.474 15.24C252.381 15.6133 252.634 16.24 252.234 17.12L239.274 45.6C239.007 46.2133 238.621 46.52 238.114 46.52ZM242.554 36.32C242.154 36.5067 241.781 36.5467 241.434 36.44C241.087 36.3067 240.807 36.04 240.594 35.64L231.674 17.16C231.487 16.76 231.461 16.3867 231.594 16.04C231.727 15.6933 231.994 15.4267 232.394 15.24C232.794 15.0533 233.167 15.0267 233.514 15.16C233.861 15.2667 234.127 15.52 234.314 15.92L243.074 34.4C243.287 34.8 243.354 35.1733 243.274 35.52C243.194 35.8667 242.954 36.1333 242.554 36.32ZM258.428 37C257.921 37 257.495 36.8667 257.148 36.6C256.828 36.3067 256.668 35.92 256.668 35.44V7.32C256.668 6.86666 256.815 6.49333 257.108 6.2C257.401 5.90667 257.775 5.76 258.228 5.76H267.948C269.548 5.76 270.988 6.10667 272.268 6.8C273.575 7.46667 274.601 8.38667 275.348 9.56C276.121 10.7333 276.508 12.0933 276.508 13.64C276.508 15.08 276.121 16.36 275.348 17.48C274.575 18.6 273.561 19.4533 272.308 20.04C274.095 20.52 275.535 21.4267 276.628 22.76C277.721 24.0667 278.268 25.7333 278.268 27.76C278.268 29.5733 277.855 31.1733 277.028 32.56C276.201 33.9467 275.055 35.04 273.588 35.84C272.148 36.6133 270.495 37 268.628 37H258.428ZM259.788 34H268.628C269.908 34 271.041 33.7467 272.028 33.24C273.015 32.7333 273.788 32.0133 274.348 31.08C274.908 30.1467 275.188 29.04 275.188 27.76C275.188 26.56 274.908 25.52 274.348 24.64C273.788 23.7333 273.015 23.04 272.028 22.56C271.041 22.0533 269.908 21.8 268.628 21.8H259.788V34ZM259.788 18.8H267.948C269.548 18.8 270.868 18.3467 271.908 17.44C272.948 16.5333 273.468 15.2667 273.468 13.64C273.468 12.04 272.948 10.8267 271.908 10C270.868 9.17333 269.548 8.76 267.948 8.76H259.788V18.8ZM288.8 37C287.734 37 286.774 36.7067 285.92 36.12C285.094 35.5333 284.44 34.72 283.96 33.68C283.507 32.64 283.28 31.44 283.28 30.08V7.28C283.28 6.82666 283.414 6.46666 283.68 6.2C283.974 5.90667 284.347 5.76 284.8 5.76C285.254 5.76 285.614 5.90667 285.88 6.2C286.174 6.46666 286.32 6.82666 286.32 7.28V30.08C286.32 31.2267 286.547 32.16 287 32.88C287.48 33.6 288.08 33.96 288.8 33.96H289.8C290.2 33.96 290.52 34.1067 290.76 34.4C291 34.6667 291.12 35.0267 291.12 35.48C291.12 35.9333 290.947 36.3067 290.6 36.6C290.28 36.8667 289.854 37 289.32 37H288.8ZM297.57 37C297.09 37 296.703 36.8667 296.41 36.6C296.143 36.3067 296.01 35.92 296.01 35.44V16.68C296.01 16.2 296.143 15.8267 296.41 15.56C296.703 15.2667 297.09 15.12 297.57 15.12C298.023 15.12 298.383 15.2667 298.65 15.56C298.943 15.8267 299.09 16.2 299.09 16.68V35.44C299.09 35.92 298.943 36.3067 298.65 36.6C298.383 36.8667 298.023 37 297.57 37ZM297.53 10.96C296.943 10.96 296.436 10.7467 296.01 10.32C295.583 9.89333 295.37 9.37333 295.37 8.76C295.37 8.09333 295.583 7.57333 296.01 7.2C296.463 6.8 296.983 6.6 297.57 6.6C298.13 6.6 298.623 6.8 299.05 7.2C299.503 7.57333 299.73 8.09333 299.73 8.76C299.73 9.37333 299.516 9.89333 299.09 10.32C298.663 10.7467 298.143 10.96 297.53 10.96ZM314.572 37.2C312.999 37.2 311.439 36.9333 309.892 36.4C308.345 35.8667 307.092 35.0667 306.132 34C305.839 33.68 305.719 33.32 305.772 32.92C305.825 32.52 306.025 32.1733 306.372 31.88C306.745 31.6133 307.132 31.5067 307.532 31.56C307.932 31.6133 308.265 31.7867 308.532 32.08C309.172 32.8267 310.012 33.4 311.052 33.8C312.119 34.2 313.292 34.4 314.572 34.4C316.545 34.4 317.972 34.0667 318.852 33.4C319.732 32.7067 320.185 31.88 320.212 30.92C320.212 29.96 319.759 29.1733 318.852 28.56C317.945 27.92 316.452 27.4267 314.372 27.08C311.679 26.6533 309.705 25.9067 308.452 24.84C307.199 23.7733 306.572 22.5067 306.572 21.04C306.572 19.68 306.932 18.5467 307.652 17.64C308.372 16.7333 309.332 16.0533 310.532 15.6C311.732 15.1467 313.052 14.92 314.492 14.92C316.279 14.92 317.812 15.2267 319.092 15.84C320.399 16.4533 321.452 17.28 322.252 18.32C322.519 18.6667 322.625 19.0267 322.572 19.4C322.519 19.7733 322.305 20.08 321.932 20.32C321.612 20.5067 321.239 20.5733 320.812 20.52C320.412 20.44 320.065 20.24 319.772 19.92C319.105 19.1467 318.332 18.5867 317.452 18.24C316.572 17.8667 315.559 17.68 314.412 17.68C312.945 17.68 311.772 17.9867 310.892 18.6C310.012 19.1867 309.572 19.9333 309.572 20.84C309.572 21.4533 309.732 21.9867 310.052 22.44C310.399 22.8933 310.972 23.2933 311.772 23.64C312.599 23.9867 313.745 24.28 315.212 24.52C317.212 24.84 318.785 25.32 319.932 25.96C321.105 26.5733 321.932 27.3067 322.412 28.16C322.919 28.9867 323.172 29.8933 323.172 30.88C323.172 32.1333 322.799 33.24 322.052 34.2C321.332 35.1333 320.319 35.8667 319.012 36.4C317.732 36.9333 316.252 37.2 314.572 37.2ZM336.135 37.2C334.561 37.2 333.001 36.9333 331.455 36.4C329.908 35.8667 328.655 35.0667 327.695 34C327.401 33.68 327.281 33.32 327.335 32.92C327.388 32.52 327.588 32.1733 327.935 31.88C328.308 31.6133 328.695 31.5067 329.095 31.56C329.495 31.6133 329.828 31.7867 330.095 32.08C330.735 32.8267 331.575 33.4 332.615 33.8C333.681 34.2 334.855 34.4 336.135 34.4C338.108 34.4 339.535 34.0667 340.415 33.4C341.295 32.7067 341.748 31.88 341.775 30.92C341.775 29.96 341.321 29.1733 340.415 28.56C339.508 27.92 338.015 27.4267 335.935 27.08C333.241 26.6533 331.268 25.9067 330.015 24.84C328.761 23.7733 328.135 22.5067 328.135 21.04C328.135 19.68 328.495 18.5467 329.215 17.64C329.935 16.7333 330.895 16.0533 332.095 15.6C333.295 15.1467 334.615 14.92 336.055 14.92C337.841 14.92 339.375 15.2267 340.655 15.84C341.961 16.4533 343.015 17.28 343.815 18.32C344.081 18.6667 344.188 19.0267 344.135 19.4C344.081 19.7733 343.868 20.08 343.495 20.32C343.175 20.5067 342.801 20.5733 342.375 20.52C341.975 20.44 341.628 20.24 341.335 19.92C340.668 19.1467 339.895 18.5867 339.015 18.24C338.135 17.8667 337.121 17.68 335.975 17.68C334.508 17.68 333.335 17.9867 332.455 18.6C331.575 19.1867 331.135 19.9333 331.135 20.84C331.135 21.4533 331.295 21.9867 331.615 22.44C331.961 22.8933 332.535 23.2933 333.335 23.64C334.161 23.9867 335.308 24.28 336.775 24.52C338.775 24.84 340.348 25.32 341.495 25.96C342.668 26.5733 343.495 27.3067 343.975 28.16C344.481 28.9867 344.735 29.8933 344.735 30.88C344.735 32.1333 344.361 33.24 343.615 34.2C342.895 35.1333 341.881 35.8667 340.575 36.4C339.295 36.9333 337.815 37.2 336.135 37.2Z" fill="#3EB489"/>
<path d="M106.629 72.2C105.549 72.2 104.536 71.9933 103.589 71.58C102.656 71.1667 101.829 70.5933 101.109 69.86C100.403 69.1133 99.8494 68.26 99.4494 67.3C99.0494 66.3267 98.8494 65.2867 98.8494 64.18C98.8494 63.0867 99.0427 62.06 99.4294 61.1C99.8294 60.1267 100.383 59.2733 101.089 58.54C101.809 57.8067 102.636 57.2333 103.569 56.82C104.516 56.3933 105.536 56.18 106.629 56.18C107.589 56.18 108.463 56.32 109.249 56.6C110.036 56.88 110.796 57.3267 111.529 57.94C111.649 58.0333 111.716 58.1467 111.729 58.28C111.756 58.4 111.743 58.52 111.689 58.64C111.636 58.7467 111.556 58.8267 111.449 58.88C111.423 58.9867 111.356 59.0667 111.249 59.12C111.143 59.1733 111.016 59.1933 110.869 59.18C110.736 59.1667 110.603 59.1067 110.469 59C109.949 58.5467 109.383 58.2133 108.769 58C108.156 57.7733 107.443 57.66 106.629 57.66C105.763 57.66 104.949 57.8333 104.189 58.18C103.443 58.5267 102.783 59 102.209 59.6C101.636 60.2 101.183 60.8933 100.849 61.68C100.529 62.4667 100.369 63.3 100.369 64.18C100.369 65.0867 100.529 65.9333 100.849 66.72C101.183 67.5067 101.636 68.2 102.209 68.8C102.783 69.4 103.443 69.8733 104.189 70.22C104.949 70.5533 105.763 70.72 106.629 70.72C107.363 70.72 108.056 70.6 108.709 70.36C109.363 70.12 109.983 69.7733 110.569 69.32C110.729 69.1867 110.896 69.1333 111.069 69.16C111.256 69.1867 111.416 69.2667 111.549 69.4C111.683 69.5333 111.749 69.7067 111.749 69.92C111.749 70.0267 111.729 70.1267 111.689 70.22C111.663 70.3 111.609 70.3867 111.529 70.48C110.849 71.1067 110.089 71.5533 109.249 71.82C108.409 72.0733 107.536 72.2 106.629 72.2ZM118.92 72.1C117.84 72.1 116.88 71.8667 116.04 71.4C115.213 70.92 114.56 70.26 114.08 69.42C113.613 68.58 113.38 67.62 113.38 66.54C113.38 65.4467 113.6 64.4867 114.04 63.66C114.493 62.82 115.113 62.16 115.9 61.68C116.687 61.2 117.593 60.96 118.62 60.96C119.633 60.96 120.513 61.1933 121.26 61.66C122.02 62.1133 122.607 62.7467 123.02 63.56C123.433 64.3733 123.64 65.3 123.64 66.34C123.64 66.5533 123.573 66.7267 123.44 66.86C123.307 66.98 123.133 67.04 122.92 67.04H114.42V65.76H123.08L122.22 66.38C122.233 65.6067 122.093 64.9133 121.8 64.3C121.507 63.6867 121.087 63.2067 120.54 62.86C120.007 62.5133 119.367 62.34 118.62 62.34C117.86 62.34 117.193 62.52 116.62 62.88C116.047 63.24 115.6 63.74 115.28 64.38C114.973 65.0067 114.82 65.7267 114.82 66.54C114.82 67.3533 114.993 68.0733 115.34 68.7C115.7 69.3267 116.187 69.82 116.8 70.18C117.413 70.54 118.12 70.72 118.92 70.72C119.4 70.72 119.88 70.64 120.36 70.48C120.853 70.3067 121.247 70.0933 121.54 69.84C121.687 69.72 121.853 69.66 122.04 69.66C122.227 69.6467 122.387 69.6933 122.52 69.8C122.693 69.96 122.78 70.1333 122.78 70.32C122.793 70.5067 122.72 70.6667 122.56 70.8C122.12 71.1733 121.56 71.4867 120.88 71.74C120.2 71.98 119.547 72.1 118.92 72.1ZM128.605 72C128.072 72 127.592 71.8533 127.165 71.56C126.752 71.2667 126.425 70.86 126.185 70.34C125.959 69.82 125.845 69.22 125.845 68.54V57.14C125.845 56.9133 125.912 56.7333 126.045 56.6C126.192 56.4533 126.379 56.38 126.605 56.38C126.832 56.38 127.012 56.4533 127.145 56.6C127.292 56.7333 127.365 56.9133 127.365 57.14V68.54C127.365 69.1133 127.479 69.58 127.705 69.94C127.945 70.3 128.245 70.48 128.605 70.48H129.105C129.305 70.48 129.465 70.5533 129.585 70.7C129.705 70.8333 129.765 71.0133 129.765 71.24C129.765 71.4667 129.679 71.6533 129.505 71.8C129.345 71.9333 129.132 72 128.865 72H128.605ZM136.244 72.1C135.164 72.1 134.204 71.8667 133.364 71.4C132.538 70.92 131.884 70.26 131.404 69.42C130.938 68.58 130.704 67.62 130.704 66.54C130.704 65.4467 130.924 64.4867 131.364 63.66C131.818 62.82 132.438 62.16 133.224 61.68C134.011 61.2 134.918 60.96 135.944 60.96C136.958 60.96 137.838 61.1933 138.584 61.66C139.344 62.1133 139.931 62.7467 140.344 63.56C140.758 64.3733 140.964 65.3 140.964 66.34C140.964 66.5533 140.898 66.7267 140.764 66.86C140.631 66.98 140.458 67.04 140.244 67.04H131.744V65.76H140.404L139.544 66.38C139.558 65.6067 139.418 64.9133 139.124 64.3C138.831 63.6867 138.411 63.2067 137.864 62.86C137.331 62.5133 136.691 62.34 135.944 62.34C135.184 62.34 134.518 62.52 133.944 62.88C133.371 63.24 132.924 63.74 132.604 64.38C132.298 65.0067 132.144 65.7267 132.144 66.54C132.144 67.3533 132.318 68.0733 132.664 68.7C133.024 69.3267 133.511 69.82 134.124 70.18C134.738 70.54 135.444 70.72 136.244 70.72C136.724 70.72 137.204 70.64 137.684 70.48C138.178 70.3067 138.571 70.0933 138.864 69.84C139.011 69.72 139.178 69.66 139.364 69.66C139.551 69.6467 139.711 69.6933 139.844 69.8C140.018 69.96 140.104 70.1333 140.104 70.32C140.118 70.5067 140.044 70.6667 139.884 70.8C139.444 71.1733 138.884 71.4867 138.204 71.74C137.524 71.98 136.871 72.1 136.244 72.1ZM149.11 72.1C148.07 72.1 147.13 71.86 146.29 71.38C145.463 70.9 144.803 70.2467 144.31 69.42C143.83 68.58 143.583 67.64 143.57 66.6V57.16C143.57 56.92 143.636 56.7333 143.77 56.6C143.916 56.4533 144.11 56.38 144.35 56.38C144.576 56.38 144.756 56.4533 144.89 56.6C145.036 56.7333 145.11 56.92 145.11 57.16V63.04C145.55 62.4133 146.13 61.9133 146.85 61.54C147.583 61.1533 148.396 60.96 149.29 60.96C150.316 60.96 151.236 61.2067 152.05 61.7C152.863 62.18 153.503 62.84 153.97 63.68C154.45 64.52 154.69 65.4667 154.69 66.52C154.69 67.5867 154.443 68.54 153.95 69.38C153.47 70.22 152.81 70.8867 151.97 71.38C151.13 71.86 150.176 72.1 149.11 72.1ZM149.11 70.7C149.883 70.7 150.576 70.52 151.19 70.16C151.803 69.7867 152.283 69.2867 152.63 68.66C152.99 68.0333 153.17 67.32 153.17 66.52C153.17 65.7333 152.99 65.0267 152.63 64.4C152.283 63.76 151.803 63.26 151.19 62.9C150.576 62.54 149.883 62.36 149.11 62.36C148.35 62.36 147.663 62.54 147.05 62.9C146.436 63.26 145.956 63.76 145.61 64.4C145.263 65.0267 145.09 65.7333 145.09 66.52C145.09 67.32 145.263 68.0333 145.61 68.66C145.956 69.2867 146.436 69.7867 147.05 70.16C147.663 70.52 148.35 70.7 149.11 70.7ZM158.35 65.26C158.39 64.4333 158.603 63.6933 158.99 63.04C159.39 62.3867 159.903 61.8733 160.53 61.5C161.17 61.1267 161.877 60.94 162.65 60.94C163.263 60.94 163.737 61.0267 164.07 61.2C164.403 61.3733 164.53 61.6267 164.45 61.96C164.397 62.16 164.303 62.2933 164.17 62.36C164.05 62.4267 163.897 62.4533 163.71 62.44C163.537 62.4267 163.337 62.4133 163.11 62.4C162.363 62.3333 161.697 62.4133 161.11 62.64C160.537 62.8533 160.077 63.1867 159.73 63.64C159.397 64.0933 159.23 64.6333 159.23 65.26H158.35ZM158.47 72C158.23 72 158.043 71.9333 157.91 71.8C157.777 71.6667 157.71 71.48 157.71 71.24V61.82C157.71 61.58 157.777 61.3933 157.91 61.26C158.043 61.1267 158.23 61.06 158.47 61.06C158.71 61.06 158.897 61.1267 159.03 61.26C159.163 61.3933 159.23 61.58 159.23 61.82V71.24C159.23 71.48 159.163 71.6667 159.03 71.8C158.897 71.9333 158.71 72 158.47 72ZM170.89 72.1C169.863 72.1 168.943 71.86 168.13 71.38C167.316 70.8867 166.67 70.22 166.19 69.38C165.723 68.54 165.49 67.5933 165.49 66.54C165.49 65.4733 165.73 64.52 166.21 63.68C166.703 62.84 167.37 62.18 168.21 61.7C169.05 61.2067 169.996 60.96 171.05 60.96C172.103 60.96 173.043 61.2067 173.87 61.7C174.71 62.18 175.37 62.84 175.85 63.68C176.343 64.52 176.596 65.4733 176.61 66.54L175.99 67.02C175.99 67.98 175.763 68.8467 175.31 69.62C174.87 70.38 174.263 70.9867 173.49 71.44C172.73 71.88 171.863 72.1 170.89 72.1ZM171.05 70.7C171.823 70.7 172.51 70.52 173.11 70.16C173.723 69.8 174.203 69.3067 174.55 68.68C174.91 68.04 175.09 67.3267 175.09 66.54C175.09 65.74 174.91 65.0267 174.55 64.4C174.203 63.7733 173.723 63.28 173.11 62.92C172.51 62.5467 171.823 62.36 171.05 62.36C170.29 62.36 169.603 62.5467 168.99 62.92C168.376 63.28 167.89 63.7733 167.53 64.4C167.17 65.0267 166.99 65.74 166.99 66.54C166.99 67.3267 167.17 68.04 167.53 68.68C167.89 69.3067 168.376 69.8 168.99 70.16C169.603 70.52 170.29 70.7 171.05 70.7ZM175.83 72C175.603 72 175.416 71.9333 175.27 71.8C175.123 71.6533 175.05 71.4667 175.05 71.24V67.82L175.43 66.24L176.61 66.54V71.24C176.61 71.4667 176.536 71.6533 176.39 71.8C176.243 71.9333 176.056 72 175.83 72ZM183.885 72C183.178 72 182.545 71.8333 181.985 71.5C181.438 71.1667 181.005 70.7133 180.685 70.14C180.365 69.5533 180.205 68.8867 180.205 68.14V58.36C180.205 58.1333 180.271 57.9467 180.405 57.8C180.551 57.6533 180.738 57.58 180.965 57.58C181.191 57.58 181.378 57.6533 181.525 57.8C181.671 57.9467 181.745 58.1333 181.745 58.36V68.14C181.745 68.82 181.945 69.38 182.345 69.82C182.745 70.2467 183.258 70.46 183.885 70.46H184.425C184.638 70.46 184.811 70.5333 184.945 70.68C185.078 70.8267 185.145 71.0133 185.145 71.24C185.145 71.4667 185.065 71.6533 184.905 71.8C184.745 71.9333 184.545 72 184.305 72H183.885ZM178.905 62.8C178.705 62.8 178.538 62.74 178.405 62.62C178.271 62.4867 178.205 62.3267 178.205 62.14C178.205 61.94 178.271 61.78 178.405 61.66C178.538 61.5267 178.705 61.46 178.905 61.46H184.005C184.205 61.46 184.371 61.5267 184.505 61.66C184.638 61.78 184.705 61.94 184.705 62.14C184.705 62.3267 184.638 62.4867 184.505 62.62C184.371 62.74 184.205 62.8 184.005 62.8H178.905ZM192.612 72.1C191.532 72.1 190.572 71.8667 189.732 71.4C188.905 70.92 188.252 70.26 187.772 69.42C187.305 68.58 187.072 67.62 187.072 66.54C187.072 65.4467 187.292 64.4867 187.732 63.66C188.185 62.82 188.805 62.16 189.592 61.68C190.378 61.2 191.285 60.96 192.312 60.96C193.325 60.96 194.205 61.1933 194.952 61.66C195.712 62.1133 196.298 62.7467 196.712 63.56C197.125 64.3733 197.332 65.3 197.332 66.34C197.332 66.5533 197.265 66.7267 197.132 66.86C196.998 66.98 196.825 67.04 196.612 67.04H188.112V65.76H196.772L195.912 66.38C195.925 65.6067 195.785 64.9133 195.492 64.3C195.198 63.6867 194.778 63.2067 194.232 62.86C193.698 62.5133 193.058 62.34 192.312 62.34C191.552 62.34 190.885 62.52 190.312 62.88C189.738 63.24 189.292 63.74 188.972 64.38C188.665 65.0067 188.512 65.7267 188.512 66.54C188.512 67.3533 188.685 68.0733 189.032 68.7C189.392 69.3267 189.878 69.82 190.492 70.18C191.105 70.54 191.812 70.72 192.612 70.72C193.092 70.72 193.572 70.64 194.052 70.48C194.545 70.3067 194.938 70.0933 195.232 69.84C195.378 69.72 195.545 69.66 195.732 69.66C195.918 69.6467 196.078 69.6933 196.212 69.8C196.385 69.96 196.472 70.1333 196.472 70.32C196.485 70.5067 196.412 70.6667 196.252 70.8C195.812 71.1733 195.252 71.4867 194.572 71.74C193.892 71.98 193.238 72.1 192.612 72.1ZM208.276 72C208.103 72 207.949 71.9533 207.816 71.86C207.683 71.7667 207.589 71.6467 207.536 71.5L204.416 62.14C204.336 61.8067 204.343 61.5467 204.436 61.36C204.529 61.16 204.716 61.06 204.996 61.06C205.169 61.06 205.323 61.1067 205.456 61.2C205.589 61.2933 205.689 61.44 205.756 61.64L208.536 70.14H208.096L210.676 61.66C210.729 61.4867 210.816 61.3467 210.936 61.24C211.069 61.12 211.236 61.06 211.436 61.06C211.636 61.06 211.796 61.1133 211.916 61.22C212.049 61.3267 212.143 61.4733 212.196 61.66L214.656 69.94H214.316L217.036 61.64C217.169 61.2533 217.416 61.06 217.776 61.06C218.069 61.06 218.269 61.1733 218.376 61.4C218.483 61.6133 218.483 61.86 218.376 62.14L215.256 71.5C215.203 71.6467 215.109 71.7667 214.976 71.86C214.856 71.9533 214.709 72 214.536 72C214.363 72 214.203 71.9533 214.056 71.86C213.923 71.7667 213.836 71.6467 213.796 71.5L211.276 63.14H211.516L208.996 71.5C208.943 71.66 208.849 71.7867 208.716 71.88C208.583 71.96 208.436 72 208.276 72ZM221.701 72C221.461 72 221.267 71.9333 221.121 71.8C220.987 71.6533 220.921 71.46 220.921 71.22V61.84C220.921 61.6 220.987 61.4133 221.121 61.28C221.267 61.1333 221.461 61.06 221.701 61.06C221.927 61.06 222.107 61.1333 222.241 61.28C222.387 61.4133 222.461 61.6 222.461 61.84V71.22C222.461 71.46 222.387 71.6533 222.241 71.8C222.107 71.9333 221.927 72 221.701 72ZM221.681 58.98C221.387 58.98 221.134 58.8733 220.921 58.66C220.707 58.4467 220.601 58.1867 220.601 57.88C220.601 57.5467 220.707 57.2867 220.921 57.1C221.147 56.9 221.407 56.8 221.701 56.8C221.981 56.8 222.227 56.9 222.441 57.1C222.667 57.2867 222.781 57.5467 222.781 57.88C222.781 58.1867 222.674 58.4467 222.461 58.66C222.247 58.8733 221.987 58.98 221.681 58.98ZM230.662 72C229.955 72 229.322 71.8333 228.762 71.5C228.215 71.1667 227.782 70.7133 227.462 70.14C227.142 69.5533 226.982 68.8867 226.982 68.14V58.36C226.982 58.1333 227.049 57.9467 227.182 57.8C227.329 57.6533 227.515 57.58 227.742 57.58C227.969 57.58 228.155 57.6533 228.302 57.8C228.449 57.9467 228.522 58.1333 228.522 58.36V68.14C228.522 68.82 228.722 69.38 229.122 69.82C229.522 70.2467 230.035 70.46 230.662 70.46H231.202C231.415 70.46 231.589 70.5333 231.722 70.68C231.855 70.8267 231.922 71.0133 231.922 71.24C231.922 71.4667 231.842 71.6533 231.682 71.8C231.522 71.9333 231.322 72 231.082 72H230.662ZM225.682 62.8C225.482 62.8 225.315 62.74 225.182 62.62C225.049 62.4867 224.982 62.3267 224.982 62.14C224.982 61.94 225.049 61.78 225.182 61.66C225.315 61.5267 225.482 61.46 225.682 61.46H230.782C230.982 61.46 231.149 61.5267 231.282 61.66C231.415 61.78 231.482 61.94 231.482 62.14C231.482 62.3267 231.415 62.4867 231.282 62.62C231.149 62.74 230.982 62.8 230.782 62.8H225.682ZM235.209 67.54C234.969 67.54 234.776 67.4667 234.629 67.32C234.496 67.1733 234.429 66.9867 234.429 66.76V57.16C234.429 56.92 234.496 56.7333 234.629 56.6C234.776 56.4533 234.969 56.38 235.209 56.38C235.436 56.38 235.616 56.4533 235.749 56.6C235.896 56.7333 235.969 56.92 235.969 57.16V66.76C235.969 66.9867 235.896 67.1733 235.749 67.32C235.616 67.4667 235.436 67.54 235.209 67.54ZM243.809 72C243.582 72 243.396 71.9267 243.249 71.78C243.102 71.6333 243.029 71.4533 243.029 71.24V66.04C243.029 65.2133 242.869 64.5333 242.549 64C242.242 63.4667 241.816 63.0667 241.269 62.8C240.736 62.5333 240.129 62.4 239.449 62.4C238.796 62.4 238.202 62.5267 237.669 62.78C237.149 63.0333 236.736 63.38 236.429 63.82C236.122 64.26 235.969 64.76 235.969 65.32H234.869C234.896 64.48 235.122 63.7333 235.549 63.08C235.976 62.4133 236.542 61.8933 237.249 61.52C237.956 61.1333 238.742 60.94 239.609 60.94C240.556 60.94 241.402 61.14 242.149 61.54C242.896 61.9267 243.482 62.5 243.909 63.26C244.349 64.02 244.569 64.9467 244.569 66.04V71.24C244.569 71.4533 244.496 71.6333 244.349 71.78C244.202 71.9267 244.022 72 243.809 72ZM235.209 72C234.969 72 234.776 71.9333 234.629 71.8C234.496 71.6533 234.429 71.4667 234.429 71.24V61.84C234.429 61.6 234.496 61.4133 234.629 61.28C234.776 61.1333 234.969 61.06 235.209 61.06C235.436 61.06 235.616 61.1333 235.749 61.28C235.896 61.4133 235.969 61.6 235.969 61.84V71.24C235.969 71.4667 235.896 71.6533 235.749 71.8C235.616 71.9333 235.436 72 235.209 72ZM258.643 72.1C257.617 72.1 256.697 71.86 255.883 71.38C255.07 70.8867 254.423 70.22 253.943 69.38C253.477 68.54 253.243 67.5933 253.243 66.54C253.243 65.4733 253.483 64.52 253.963 63.68C254.457 62.84 255.123 62.18 255.963 61.7C256.803 61.2067 257.75 60.96 258.803 60.96C259.857 60.96 260.797 61.2067 261.623 61.7C262.463 62.18 263.123 62.84 263.603 63.68C264.097 64.52 264.35 65.4733 264.363 66.54L263.743 67.02C263.743 67.98 263.517 68.8467 263.063 69.62C262.623 70.38 262.017 70.9867 261.243 71.44C260.483 71.88 259.617 72.1 258.643 72.1ZM258.803 70.7C259.577 70.7 260.263 70.52 260.863 70.16C261.477 69.8 261.957 69.3067 262.303 68.68C262.663 68.04 262.843 67.3267 262.843 66.54C262.843 65.74 262.663 65.0267 262.303 64.4C261.957 63.7733 261.477 63.28 260.863 62.92C260.263 62.5467 259.577 62.36 258.803 62.36C258.043 62.36 257.357 62.5467 256.743 62.92C256.13 63.28 255.643 63.7733 255.283 64.4C254.923 65.0267 254.743 65.74 254.743 66.54C254.743 67.3267 254.923 68.04 255.283 68.68C255.643 69.3067 256.13 69.8 256.743 70.16C257.357 70.52 258.043 70.7 258.803 70.7ZM263.583 72C263.357 72 263.17 71.9333 263.023 71.8C262.877 71.6533 262.803 71.4667 262.803 71.24V67.82L263.183 66.24L264.363 66.54V71.24C264.363 71.4667 264.29 71.6533 264.143 71.8C263.997 71.9333 263.81 72 263.583 72ZM278.098 72.1C277.045 72.1 276.105 71.86 275.278 71.38C274.465 70.8867 273.818 70.22 273.338 69.38C272.871 68.54 272.638 67.5933 272.638 66.54C272.638 65.4733 272.865 64.52 273.318 63.68C273.771 62.84 274.391 62.18 275.178 61.7C275.965 61.2067 276.871 60.96 277.898 60.96C278.711 60.96 279.458 61.12 280.138 61.44C280.831 61.76 281.438 62.24 281.958 62.88C282.105 63.04 282.158 63.2133 282.118 63.4C282.078 63.5733 281.965 63.7267 281.778 63.86C281.631 63.9667 281.465 64.0067 281.278 63.98C281.105 63.94 280.951 63.84 280.818 63.68C280.045 62.8 279.071 62.36 277.898 62.36C277.151 62.36 276.491 62.54 275.918 62.9C275.358 63.26 274.918 63.7533 274.598 64.38C274.291 65.0067 274.138 65.7267 274.138 66.54C274.138 67.34 274.305 68.0533 274.638 68.68C274.971 69.3067 275.438 69.8 276.038 70.16C276.638 70.52 277.325 70.7 278.098 70.7C278.618 70.7 279.091 70.6333 279.518 70.5C279.958 70.3533 280.345 70.1333 280.678 69.84C280.838 69.7067 281.005 69.6333 281.178 69.62C281.351 69.6067 281.511 69.66 281.658 69.78C281.818 69.9267 281.905 70.0933 281.918 70.28C281.945 70.4667 281.885 70.6267 281.738 70.76C280.765 71.6533 279.551 72.1 278.098 72.1ZM287.473 72C286.939 72 286.459 71.8533 286.033 71.56C285.619 71.2667 285.293 70.86 285.053 70.34C284.826 69.82 284.713 69.22 284.713 68.54V57.14C284.713 56.9133 284.779 56.7333 284.913 56.6C285.059 56.4533 285.246 56.38 285.473 56.38C285.699 56.38 285.879 56.4533 286.013 56.6C286.159 56.7333 286.233 56.9133 286.233 57.14V68.54C286.233 69.1133 286.346 69.58 286.573 69.94C286.813 70.3 287.113 70.48 287.473 70.48H287.973C288.173 70.48 288.333 70.5533 288.452 70.7C288.573 70.8333 288.633 71.0133 288.633 71.24C288.633 71.4667 288.546 71.6533 288.373 71.8C288.213 71.9333 287.999 72 287.733 72H287.473ZM291.857 72C291.617 72 291.424 71.9333 291.277 71.8C291.144 71.6533 291.077 71.46 291.077 71.22V61.84C291.077 61.6 291.144 61.4133 291.277 61.28C291.424 61.1333 291.617 61.06 291.857 61.06C292.084 61.06 292.264 61.1333 292.397 61.28C292.544 61.4133 292.617 61.6 292.617 61.84V71.22C292.617 71.46 292.544 71.6533 292.397 71.8C292.264 71.9333 292.084 72 291.857 72ZM291.837 58.98C291.544 58.98 291.29 58.8733 291.077 58.66C290.864 58.4467 290.757 58.1867 290.757 57.88C290.757 57.5467 290.864 57.2867 291.077 57.1C291.304 56.9 291.564 56.8 291.857 56.8C292.137 56.8 292.384 56.9 292.597 57.1C292.824 57.2867 292.937 57.5467 292.937 57.88C292.937 58.1867 292.83 58.4467 292.617 58.66C292.404 58.8733 292.144 58.98 291.837 58.98ZM301.418 72.1C300.365 72.1 299.425 71.86 298.598 71.38C297.785 70.8867 297.138 70.22 296.658 69.38C296.192 68.54 295.958 67.5933 295.958 66.54C295.958 65.4733 296.185 64.52 296.638 63.68C297.092 62.84 297.712 62.18 298.498 61.7C299.285 61.2067 300.192 60.96 301.218 60.96C302.032 60.96 302.778 61.12 303.458 61.44C304.152 61.76 304.758 62.24 305.278 62.88C305.425 63.04 305.478 63.2133 305.438 63.4C305.398 63.5733 305.285 63.7267 305.098 63.86C304.952 63.9667 304.785 64.0067 304.598 63.98C304.425 63.94 304.272 63.84 304.138 63.68C303.365 62.8 302.392 62.36 301.218 62.36C300.472 62.36 299.812 62.54 299.238 62.9C298.678 63.26 298.238 63.7533 297.918 64.38C297.612 65.0067 297.458 65.7267 297.458 66.54C297.458 67.34 297.625 68.0533 297.958 68.68C298.292 69.3067 298.758 69.8 299.358 70.16C299.958 70.52 300.645 70.7 301.418 70.7C301.938 70.7 302.412 70.6333 302.838 70.5C303.278 70.3533 303.665 70.1333 303.998 69.84C304.158 69.7067 304.325 69.6333 304.498 69.62C304.672 69.6067 304.832 69.66 304.978 69.78C305.138 69.9267 305.225 70.0933 305.238 70.28C305.265 70.4667 305.205 70.6267 305.058 70.76C304.085 71.6533 302.872 72.1 301.418 72.1ZM309.693 68.34L308.753 67.32L315.593 61.14C315.753 60.9933 315.919 60.9267 316.093 60.94C316.266 60.94 316.426 61.02 316.573 61.18C316.719 61.34 316.786 61.5133 316.773 61.7C316.773 61.8733 316.693 62.0267 316.533 62.16L309.693 68.34ZM309.193 72C308.966 72 308.779 71.9333 308.633 71.8C308.499 71.6533 308.433 71.4667 308.433 71.24V57.14C308.433 56.9133 308.499 56.7333 308.633 56.6C308.779 56.4533 308.966 56.38 309.193 56.38C309.419 56.38 309.599 56.4533 309.733 56.6C309.879 56.7333 309.953 56.9133 309.953 57.14V71.24C309.953 71.4667 309.879 71.6533 309.733 71.8C309.599 71.9333 309.419 72 309.193 72ZM316.593 71.9C316.419 72.0467 316.239 72.1067 316.053 72.08C315.866 72.0667 315.706 71.9733 315.573 71.8L311.113 66.32L312.193 65.36L316.693 70.9C316.826 71.06 316.886 71.2333 316.873 71.42C316.859 71.5933 316.766 71.7533 316.593 71.9ZM320.238 68.46C320.025 68.46 319.838 68.3867 319.678 68.24C319.531 68.08 319.458 67.8933 319.458 67.68V57.16C319.458 56.9333 319.531 56.7467 319.678 56.6C319.838 56.44 320.025 56.36 320.238 56.36C320.465 56.36 320.651 56.44 320.798 56.6C320.945 56.7467 321.018 56.9333 321.018 57.16V67.68C321.018 67.8933 320.938 68.08 320.778 68.24C320.618 68.3867 320.438 68.46 320.238 68.46ZM320.238 72C319.918 72 319.645 71.8867 319.418 71.66C319.191 71.4333 319.078 71.16 319.078 70.84C319.078 70.5067 319.191 70.2267 319.418 70C319.645 69.7733 319.918 69.66 320.238 69.66C320.558 69.66 320.831 69.78 321.058 70.02C321.285 70.2467 321.398 70.52 321.398 70.84C321.398 71.16 321.285 71.4333 321.058 71.66C320.831 71.8867 320.558 72 320.238 72Z" fill="#3EB489"/>
</svg>
