<svg width="56" height="74" viewBox="0 0 56 74" fill="none" xmlns="http://www.w3.org/2000/svg">
<path d="M14.4653 51.6886C18.2959 54.5546 22.8599 56.2912 27.7982 56.3326C41.6049 56.4476 53.1105 43.2659 52.9992 29.0143C52.8875 14.7625 41.6049 3.11586 27.7982 3.00086C13.9916 2.88586 2.8894 14.346 3.00083 28.5978C3.0308 32.4316 3.84 36.2016 5.27579 39.6666" stroke="#3EB489" stroke-width="5" stroke-linecap="round"/>
<path d="M39.4649 26.3332C39.4206 20.8546 34.9436 16.3775 29.4649 16.3333" stroke="#3EB489" stroke-width="5" stroke-linecap="round"/>
<path d="M27.7982 64.1673C28.8689 64.1673 29.4042 64.1673 29.7759 64.0943C31.9536 63.6663 33.2786 61.519 32.6352 59.4613C32.5252 59.11 32.2716 58.654 31.7636 57.7423M27.7982 64.1673C26.7276 64.1673 26.1922 64.1673 25.8206 64.0943C23.6429 63.6663 22.3179 61.519 22.9612 59.4613C23.0712 59.11 23.3249 58.654 23.8329 57.7423M27.7982 64.1673V71.3333" stroke="#3EB489" stroke-width="5" stroke-linecap="round"/>
</svg>
